{"asset":{"version":"2.0","generator":"Blockbench 4.12.5 glTF exporter"},"scenes":[{"nodes":[3],"name":"blockbench_export"}],"scene":0,"nodes":[{"name":"cylinder","mesh":0},{"translation":[0,7.5,0],"name":"sphere","mesh":1},{"name":"root","children":[0,1]},{"children":[2]}],"bufferViews":[{"buffer":0,"byteOffset":0,"byteLength":2160,"target":34962,"byteStride":12},{"buffer":0,"byteOffset":2160,"byteLength":2160,"target":34962,"byteStride":12},{"buffer":0,"byteOffset":4320,"byteLength":1440,"target":34962,"byteStride":8},{"buffer":0,"byteOffset":5760,"byteLength":504,"target":34963},{"buffer":0,"byteOffset":6264,"byteLength":4056,"target":34962,"byteStride":12},{"buffer":0,"byteOffset":10320,"byteLength":4056,"target":34962,"byteStride":12},{"buffer":0,"byteOffset":14376,"byteLength":2704,"target":34962,"byteStride":8},{"buffer":0,"byteOffset":17080,"byteLength":936,"target":34963}],"buffers":[{"byteLength":18016,"uri":"data:application/octet-stream;base64,"}],"accessors":[{"bufferView":0,"componentType":5126,"count":180,"max":[0.5773502588272095,7.0625,0.5],"min":[-0.5773502588272095,0,-0.5],"type":"VEC3"},{"bufferView":1,"componentType":5126,"count":180,"max":[0.8858494162559509,1,1],"min":[-0.8858494162559509,-1,-1],"type":"VEC3"},{"bufferView":2,"componentType":5126,"count":180,"max":[0.25678750872612,0.56640625],"min":[0.001025000005029142,0],"type":"VEC2"},{"bufferView":3,"componentType":5123,"count":252,"max":[179],"min":[0],"type":"SCALAR"},{"bufferView":4,"componentType":5126,"count":338,"max":[0.49839216470718384,0.5,0.48746395111083984],"min":[-0.49839216470718384,-0.5,-0.5020527243614197],"type":"VEC3"},{"bufferView":5,"componentType":5126,"count":338,"max":[0.9927088618278503,0.9749279022216797,1],"min":[-0.9927088618278503,-0.9749279022216797,-0.9709418416023254],"type":"VEC3"},{"bufferView":6,"componentType":5126,"count":338,"max":[0.25,0.26437968015670776],"min":[0.07903437316417694,0],"type":"VEC2"},{"bufferView":7,"componentType":5123,"count":468,"max":[337],"min":[0],"type":"SCALAR"}],"materials":[{"pbrMetallicRoughness":{"metallicFactor":0,"roughnessFactor":1,"baseColorTexture":{"index":0}},"alphaMode":"MASK","alphaCutoff":0.05,"doubleSided":true}],"textures":[{"sampler":0,"source":0,"name":"texture"}],"samplers":[{"magFilter":9728,"minFilter":9728,"wrapS":33071,"wrapT":33071}],"images":[{"mimeType":"image/png","uri":"data:image/png;base64,"}],"meshes":[{"primitives":[{"mode":4,"attributes":{"POSITION":0,"NORMAL":1,"TEXCOORD_0":2},"indices":3,"material":0}]},{"primitives":[{"mode":4,"attributes":{"POSITION":4,"NORMAL":5,"TEXCOORD_0":6},"indices":7,"material":0}]}]}